HIERARCHY
ROOT Hips
{
	OFFSET	0.00	0.00	0.00
	CHANNELS 6 Xposition Yposition Zposition Zrotation Xrotation Yrotation
	JOINT Chest
	{
		OFFSET	0.000000	6.275751	0.000000
		CHANNELS 3 Zrotation Xrotation Yrotation
		JOINT Neck
		{
			OFFSET	0.000000	14.296947	0.000000
			CHANNELS 3 Zrotation Xrotation Yrotation
			JOINT Head
			{
				OFFSET	0.000000	2.637461	0.000000
				CHANNELS 3 Zrotation Xrotation Yrotation
				End Site
				{
					OFFSET	0.000000	4.499004	0.000000
				}
			}
		}
		JOINT LeftCollar
		{
			OFFSET	1.120000	11.362855	1.870000
			CHANNELS 3 Zrotation Xrotation Yrotation
			JOINT LeftUpArm
			{
				OFFSET	4.565688	2.019026	-1.821179
				CHANNELS 3 Zrotation Xrotation Yrotation
				JOINT LeftLowArm
				{
					OFFSET	0.219729	-10.348825	-0.061708
					CHANNELS 3 Zrotation Xrotation Yrotation
					JOINT LeftHand
					{
						OFFSET	0.087892	-10.352228	2.178217
						CHANNELS 3 Zrotation Xrotation Yrotation
						End Site
						{
							OFFSET	0.131837	-6.692379	1.711456
						}
					}
				}
			}
		}
		JOINT RightCollar
		{
			OFFSET	-1.120000	11.362855	1.870000
			CHANNELS 3 Zrotation Xrotation Yrotation
			JOINT RightUpArm
			{
				OFFSET	-4.708080	2.034554	-1.821179
				CHANNELS 3 Zrotation Xrotation Yrotation
				JOINT RightLowArm
				{
					OFFSET	-0.263676	-10.428555	-0.061708
					CHANNELS 3 Zrotation Xrotation Yrotation
					JOINT RightHand
					{
						OFFSET	0.000000	-10.255345	2.178217
						CHANNELS 3 Zrotation Xrotation Yrotation
						End Site
						{
							OFFSET	-0.140882	-6.671274	1.711456
						}
					}
				}
			}
		}
	}
	JOINT LeftUpLeg
	{
		OFFSET	3.910000	0.000000	0.000000
		CHANNELS 3 Zrotation Xrotation Yrotation
		JOINT LeftLowLeg
		{
			OFFSET	-0.441177	-17.569450	1.695613
			CHANNELS 3 Zrotation Xrotation Yrotation
			JOINT LeftFoot
			{
				OFFSET	-0.043946	-17.197315	-1.478076
				CHANNELS 3 Zrotation Xrotation Yrotation
				End Site
				{
					OFFSET	0.000000	-3.933155	5.233925
				}
			}
		}
	}
	JOINT RightUpLeg
	{
		OFFSET	-3.910000	0.000000	0.000000
		CHANNELS 3 Zrotation Xrotation Yrotation
		JOINT RightLowLeg
		{
			OFFSET	0.437741	-17.622387	1.695613
			CHANNELS 3 Zrotation Xrotation Yrotation
			JOINT RightFoot
			{
				OFFSET	0.000000	-17.140001	-1.478076
				CHANNELS 3 Zrotation Xrotation Yrotation
				End Site
				{
					OFFSET	0.000000	-4.038528	5.233925
				}
			}
		}
	}
}
MOTION
Frames: 17
Frame Time: 0.04166667
59.693954	6.211080	3.088186	1.534747	1.866286	82.740425	-7.165058	4.050888	-9.236937	12.004159	2.272659	7.098347	-4.060265	-0.297407	-1.213117	-14.542401	21.938574	8.048864	38.348686	-36.893288	-28.174267	2.343668	-44.358315	-4.024925	-6.397589	2.538375	-1.356970	21.681915	5.641727	-4.806984	-37.084286	0.390253	11.167189	-4.742180	-56.065121	4.500278	-15.434992	2.840255	-3.272571	-5.317191	7.231750	6.254502	-1.564276	62.162476	-4.076110	-15.803712	29.436975	9.079081	2.018934	-6.058045	-5.820482	1.964430	-9.196931	5.891677	6.338850	-0.321101	4.342098	
64.548759	5.082731	3.169492	3.096681	2.218946	86.139221	-5.726569	5.456667	-8.296084	8.991293	2.436774	2.528280	-2.776693	-1.588570	-0.891155	-15.677711	20.809774	6.863841	37.743114	-29.853415	-27.743868	3.018438	-36.111450	-6.985888	0.710511	2.463569	0.151017	20.498121	7.339830	-5.798804	-36.161613	-8.757351	13.976273	-5.820029	-57.778885	5.857609	-9.636863	2.570434	-2.057735	-1.200426	-3.468663	7.211125	12.727296	84.975487	-13.330865	-9.553819	30.980082	5.531175	3.728496	0.200807	-14.888503	2.097455	-9.158430	7.452017	-5.878718	7.903103	6.446497	
68.816002	3.753849	3.371678	0.101646	-1.150979	86.789589	2.153820	0.716528	-6.419118	2.811113	4.762193	-0.613605	-0.389928	-5.375371	-0.150304	-13.273739	13.481468	1.186634	31.531149	-12.234234	-20.832064	4.108431	-33.437828	-11.104895	-3.020154	2.479481	-0.641597	13.124759	8.519791	-4.059767	-32.562824	-16.726936	17.010406	-7.519186	-61.763844	6.758056	-9.988509	2.583294	-2.132107	8.372119	-20.862707	12.350453	167.725220	76.086288	-162.373779	3.743575	31.138187	-2.510675	5.413551	-7.052285	-20.808893	2.703047	14.553087	10.446175	-17.304760	-8.224047	4.369329	
73.752121	3.194990	3.363840	-4.137969	-3.609143	86.610146	9.762974	-2.320728	-4.090776	-3.339647	4.227647	-3.054692	1.537394	-8.113742	0.663201	-15.104635	8.986013	-0.759564	29.010424	1.503365	-12.648549	5.517337	-36.387768	-15.211761	0.852206	2.464085	0.181146	7.331493	11.035996	-1.655226	-31.464762	-26.948536	17.060886	-12.602807	-66.864708	9.129155	-16.150805	2.882056	-3.420532	15.466908	-40.360611	16.697401	170.255020	67.458168	-163.184921	12.063895	29.574057	-7.338161	7.741418	-6.299946	-14.840832	2.293599	17.964760	6.171702	-15.526937	-16.467512	2.153077	
78.696861	3.251780	3.289753	-4.806859	-3.786376	87.860222	10.615808	1.398857	0.510038	-4.361503	0.192251	-9.336539	2.970566	-10.523496	1.399713	-19.125532	15.256810	2.494076	33.196823	-0.955797	-4.954507	4.611196	-40.017014	-11.295318	3.175515	2.481459	0.674584	10.773808	16.600908	-6.398415	-35.281391	-41.430370	13.079379	-18.995319	-73.039612	6.038897	-18.828074	3.054775	-3.969351	14.951468	-51.928360	13.809391	170.914185	69.098488	-168.222855	10.642615	22.855713	-5.405591	8.386655	4.068761	-15.145029	2.193204	9.465127	5.859550	-13.341085	-18.233835	2.156776	
84.607796	3.707825	3.396128	-4.111235	-1.999465	91.401237	7.368795	3.175967	2.786680	-4.434035	-1.431775	-15.733478	6.237365	-11.292684	3.025666	-20.521029	19.467951	4.187753	36.114342	-1.016108	-0.311819	4.398964	-42.457512	-10.069574	3.053663	2.480063	0.648736	13.713326	19.596458	-10.786798	-35.454498	-49.795464	13.257539	-21.580412	-76.323677	1.326466	-14.086961	2.766648	-2.992539	5.204723	-55.384407	2.137894	168.454071	79.801704	-169.951950	6.234528	13.332082	-2.266461	10.221189	20.426733	-20.030750	1.965628	-9.172399	6.080709	-10.441160	-9.769639	4.340526	
87.947792	4.462819	3.646430	-4.509067	1.021251	97.547081	0.981861	-0.444060	2.328249	-2.789305	1.119897	-21.406876	8.553928	-8.819679	3.817113	-15.432589	16.885674	-1.089674	35.096397	9.015584	1.077630	4.202158	-44.102985	-9.130681	2.844969	2.477391	0.604402	12.103332	14.062853	-9.456749	-28.894119	-42.328865	20.475939	-15.730419	-76.319527	0.469088	-15.452608	2.841260	-3.276210	-8.386303	-53.084438	-12.684241	4.006871	81.626823	-6.791375	3.448364	4.320378	-0.793923	7.206708	20.092003	-25.765217	2.070300	2.870109	4.253766	-9.418912	-2.527923	5.613819	
93.968719	5.326203	3.831693	-5.363778	2.345588	103.798737	-3.496344	-3.962206	-0.846449	-1.283547	3.641667	-24.386303	9.094983	-5.767473	3.596769	-12.675681	13.696442	-5.842012	34.294952	16.536526	1.015465	3.986110	-45.733261	-8.186553	3.735018	2.488564	0.793278	11.549559	9.069352	-7.900565	-25.873373	-32.702080	24.640793	-7.562838	-72.392891	1.339164	-8.899694	2.545038	-1.901590	-14.456181	-44.987869	-21.462729	-1.474954	55.644405	-0.942351	2.056602	-2.671041	-0.280194	2.765432	14.081511	-29.456966	2.201743	21.511675	2.969093	-10.023995	11.908957	8.166398	
99.468697	6.154510	3.789303	-3.731045	2.560706	105.420265	-3.233940	-0.757855	-3.451788	-2.003196	1.823472	-23.469824	8.782453	-4.179181	3.233128	-15.410101	15.514382	-3.131736	35.243237	8.520171	1.289211	4.326684	-45.236675	-9.204576	7.364696	2.563095	1.561118	14.197213	11.518435	-9.279889	-28.594006	-32.886738	25.714533	-6.671364	-65.846375	3.799693	-15.355664	2.835743	-3.256113	-8.017203	-27.302958	-18.222084	-2.062878	15.788109	-3.961136	-3.222198	-0.896039	0.101260	2.772748	12.218478	-20.669071	1.553450	34.358517	-0.297753	-11.583739	18.253714	9.884622	
104.822662	6.520967	3.541845	-0.709198	2.467900	103.200775	-0.616539	5.422670	-5.659722	-3.396661	-1.788933	-19.446220	7.302690	-3.554903	2.603428	-19.793930	17.026890	2.138812	35.963303	-5.068557	0.960354	4.861191	-42.580391	-11.374259	13.199123	2.784084	2.781496	16.920523	15.189284	-11.683254	-32.548759	-35.795349	25.866516	-8.283111	-57.806362	10.091061	-16.235897	2.887106	-3.438098	-3.112179	-12.797963	-17.439978	-1.700472	-9.217486	-4.331930	-9.002120	4.672225	1.463115	1.670310	5.537850	-14.250495	0.005321	56.479637	-6.355873	-10.924008	21.780256	10.210626	
110.137802	6.006670	3.233638	0.375556	0.916074	98.871216	1.698913	5.245719	-5.772243	-3.230440	-0.604441	-14.802340	5.529494	-4.160730	2.023919	-20.317846	13.671915	1.477775	35.073582	-8.974962	-2.954993	5.820982	-40.462524	-14.900384	11.436954	2.704162	2.415297	16.300089	13.456349	-10.410374	-34.203293	-28.450377	24.958315	-5.347861	-49.724396	7.583620	-14.710420	2.799956	-3.122242	-1.477618	-7.713813	-9.757759	-1.616851	-9.214746	-3.375334	-8.264533	5.774995	1.481063	-1.262350	-5.209952	-15.814635	-12.072699	78.692772	-9.963196	-18.962824	20.132427	13.742773	
115.127403	4.840068	2.974411	1.698812	0.422517	94.857239	0.032126	5.864982	-4.930461	0.425338	0.895298	-11.026978	4.414330	-5.260515	1.696418	-19.112890	16.314182	2.244271	37.146862	-19.840498	-4.690853	3.476443	-39.378010	-7.947887	-1.514120	2.466822	-0.321783	17.763939	12.282552	-9.956298	-36.066078	-21.093910	21.614571	-3.739017	-46.461163	4.453805	-9.527742	2.566558	-2.034659	-2.667585	-6.750668	1.796178	-2.260133	4.614648	-6.051689	3.913823	2.140769	-0.722577	-6.731906	-16.041998	-21.858479	-149.663101	81.426163	114.753983	-34.060814	9.694520	15.627608	
117.696709	3.793296	2.843712	-0.662491	2.340760	92.064667	-8.356106	2.820957	-4.293431	8.428818	3.137052	-8.379716	3.714028	-8.655674	1.637311	-9.800671	19.073374	0.685351	35.541656	-29.340601	-7.342243	4.116227	-42.235176	-9.303326	9.474792	2.628659	2.004915	14.920752	3.722203	-5.715167	-29.669861	-3.406145	18.314856	-4.359123	-45.755394	6.189927	-10.780794	2.613957	-2.299381	-3.808760	-9.597350	7.314698	-2.739842	21.170727	-8.159844	8.012071	-12.312374	0.781420	-13.814065	-32.337700	-26.042263	-166.119720	68.903839	132.908264	-37.637634	4.938566	13.584552	
122.345131	3.522687	2.747972	-3.263467	4.956682	90.426697	-14.567797	1.584035	-6.968133	12.680477	3.014749	-4.316481	3.796979	-10.338616	1.778707	-5.805484	21.223021	0.914940	37.591457	-38.257980	-5.269341	5.118742	-48.798622	-10.258952	7.659041	2.571202	1.623174	16.604134	2.541356	-3.831363	-28.440437	5.173169	9.668453	-5.056691	-47.694633	7.477430	-13.291686	2.726047	-2.826599	-6.379654	-3.136955	9.057765	-2.640309	17.908812	-9.549867	7.802267	-18.092411	1.555986	-18.106966	-47.517353	-25.132950	-169.123886	65.980766	146.073288	-32.345524	4.999834	12.090538	
128.075089	3.875672	2.613637	-3.476256	4.243978	88.532600	-12.194077	2.999988	-9.601884	11.974355	1.042262	1.439628	1.744630	-11.150036	0.839276	-9.010756	23.996185	5.495345	40.769848	-48.336868	-3.485590	5.916010	-57.616444	-8.857224	5.727944	2.523407	1.215428	19.146141	8.107645	-5.985995	-31.346252	4.313540	3.125527	-5.813768	-51.761738	7.971425	-14.523561	2.789184	-3.083390	-7.322505	11.972890	9.581885	-2.288031	1.630541	-8.308996	4.682328	-14.639445	0.590161	-13.005619	-53.240040	-17.475199	-168.740906	73.787132	155.688431	-24.348385	0.619831	8.103364	
134.398911	4.512189	2.403409	-2.225754	1.309072	84.917648	-6.850291	3.822893	-9.758054	11.213634	-0.062822	6.838030	-1.983751	-9.549845	-0.902794	-10.885727	25.757664	9.520801	39.368046	-54.971004	-6.587619	7.796663	-64.784103	-8.187665	6.824795	2.549192	1.447242	18.142721	9.831979	-7.551876	-31.741529	5.566343	1.784109	-6.206430	-54.459972	7.802269	-14.693411	2.799151	-3.118748	-4.162053	17.606428	3.270835	-1.776935	4.340728	-1.678951	-8.467392	-2.998293	0.244429	-2.631366	-51.209492	-7.696328	-92.795235	88.185455	83.793495	-18.088583	-5.070171	5.374876	
140.762207	5.401982	2.153634	0.487728	-0.236884	81.426277	-4.295560	6.668518	-10.534264	11.818190	-1.033685	12.252719	-4.936317	-6.184091	-1.974993	-16.103893	30.090614	15.376368	45.947937	-61.944374	-5.851543	9.802699	-67.699814	-8.370483	7.386189	2.563378	1.565593	20.015335	12.805729	-7.988447	-34.694435	2.729669	2.229864	-5.966340	-57.808304	6.097119	-11.844923	2.658601	-2.523392	-4.854771	26.239691	3.709173	-1.369841	0.438511	0.717102	-16.387888	16.919331	6.289250	3.082940	-42.504250	-2.387769	-0.998782	67.590637	-5.511848	-14.610304	-9.301659	4.190003	
